<svg xmlns="http://www.w3.org/2000/svg" viewBox="0 0 58 58"><defs><style>.cls-1{fill:#fbb03b;}.cls-2{fill:#fff;}</style></defs><title>Tasker Icon</title><g id="Layer_2" data-name="Layer 2"><g id="Layer_1-2" data-name="Layer 1"><rect class="cls-1" width="58" height="58" rx="8.21" ry="8.21"/><path class="cls-2" d="M31.26,7.89v36.5H26.74V7.89H16.83V3.61H41.17V7.89Z"/><polygon class="cls-2" points="45.88 47.61 38.79 47.61 34.79 51.61 41.88 51.61 45.88 47.61"/><polygon class="cls-2" points="34.55 47.61 27.45 47.61 23.45 51.61 30.55 51.61 34.55 47.61"/><polygon class="cls-2" points="12.12 51.61 19.21 51.61 23.21 47.61 16.12 47.61 12.12 51.61"/><path class="cls-2" d="M11.88,47.61H7a2,2,0,0,0,0,4h.88Z"/><path class="cls-2" d="M51,47.61h-.88l-4,4H51a2,2,0,0,0,0-4Z"/></g></g></svg>